<?xml version="1.0" standalone="no"?>
<!DOCTYPE svg PUBLIC "-//W3C//DTD SVG 20010904//EN"
 "http://www.w3.org/TR/2001/REC-SVG-20010904/DTD/svg10.dtd">
<svg version="1.0" xmlns="http://www.w3.org/2000/svg"
 width="300.000000pt" height="300.000000pt" viewBox="0 0 300.000000 300.000000"
 preserveAspectRatio="xMidYMid meet">
<metadata>
Created by potrace 1.14, written by Peter Selinger 2001-2017
</metadata>
<g transform="translate(0.000000,300.000000) scale(0.100000,-0.100000)"
fill="#000000" stroke="none">
<path d="M1280 2983 c-171 -25 -392 -101 -515 -176 -62 -38 -163 -104 -179
-117 -224 -181 -376 -384 -480 -639 -27 -67 -61 -182 -71 -240 -3 -19 -7 -37
-9 -40 -21 -35 -28 -357 -10 -475 32 -219 103 -414 218 -596 49 -79 42 -69
113 -155 107 -131 263 -264 400 -342 147 -83 292 -138 463 -174 160 -34 424
-33 592 2 210 43 466 160 612 279 206 169 343 341 445 562 98 211 135 383 135
628 0 160 -8 234 -39 351 -14 52 -27 102 -29 112 -14 51 -53 142 -101 234 -89
169 -194 302 -341 433 -61 54 -178 140 -191 140 -4 0 -14 6 -22 14 -16 13
-122 69 -193 100 -55 24 -201 70 -263 82 -11 2 -47 9 -80 15 -89 17 -345 18
-455 2z"/>
</g>
</svg>
